<?xml version="1.0" standalone="no"?>
<!DOCTYPE svg PUBLIC "-//W3C//DTD SVG 20010904//EN"
 "http://www.w3.org/TR/2001/REC-SVG-20010904/DTD/svg10.dtd">
<svg version="1.0" xmlns="http://www.w3.org/2000/svg"
 width="25.000000pt" height="25.000000pt" viewBox="0 0 25.000000 25.000000"
 preserveAspectRatio="xMidYMid meet">

<g transform="translate(0.000000,25.000000) scale(0.100000,-0.100000)"
fill="#000000" stroke="none">
<path d="M188 225 c3 -18 0 -25 -12 -25 -10 0 -13 -5 -9 -17 4 -11 8 -12 11
-5 6 19 22 14 32 -10 8 -22 9 -22 9 5 1 17 6 27 16 27 8 0 15 5 15 11 0 6 -7
9 -15 5 -9 -3 -20 3 -27 14 -17 27 -26 25 -20 -5z"/>
<path d="M68 193 c-22 -5 -23 -17 -4 -32 17 -14 32 2 20 21 -8 13 12 3 38 -20
22 -18 44 -7 27 14 -7 8 -18 13 -26 10 -7 -3 -13 -1 -13 4 0 10 -12 11 -42 3z"/>
<path d="M30 150 c0 -11 4 -20 10 -20 5 0 7 -6 4 -14 -8 -20 14 -30 32 -15 14
11 14 15 2 23 -8 6 -17 19 -21 29 -9 23 -27 22 -27 -3z"/>
<path d="M84 149 c-3 -6 -1 -16 4 -21 13 -13 45 8 36 23 -7 12 -31 11 -40 -2z"/>
<path d="M11 134 c0 -11 3 -14 6 -6 3 7 2 16 -1 19 -3 4 -6 -2 -5 -13z"/>
<path d="M147 144 c-4 -4 0 -16 10 -26 9 -10 13 -19 10 -19 -4 -1 -11 -3 -17
-4 -5 -1 -15 -3 -20 -4 -7 -1 -7 -9 1 -23 11 -21 11 -22 -4 -10 -17 14 -41 7
-32 -9 11 -16 -17 -10 -30 8 -7 9 -17 13 -24 9 -25 -16 8 -35 52 -30 51 5 90
42 85 81 -3 27 -18 39 -31 27z"/>
<path d="M215 125 c-18 -56 -37 -86 -66 -101 -39 -19 -101 -14 -130 12 -10 9
-19 12 -19 6 0 -18 56 -42 99 -42 31 0 49 7 75 31 19 16 38 40 42 52 4 12 10
24 15 27 4 3 4 12 -1 20 -7 12 -10 11 -15 -5z"/>
<path d="M91 101 c-22 -18 -30 -30 -23 -35 16 -10 32 1 32 21 0 9 3 13 6 10
10 -9 46 12 39 24 -9 14 -17 11 -54 -20z"/>
<path d="M10 91 c0 -12 6 -21 16 -21 9 0 14 7 12 17 -5 25 -28 28 -28 4z"/>
</g>
</svg>
